<svg xmlns="http://www.w3.org/2000/svg" viewBox="0 0 1689 584.98"><defs><style>.cls-1{fill:#82c341;}.cls-2{fill:#20aa97;}</style></defs><g id="Layer_2" data-name="Layer 2"><g id="Layer_1-2" data-name="Layer 1"><path class="cls-1" d="M210.89,227.56c10.85,28.29,47.68,54.25,84.65,59,36.72,4.7,60.38-13.24,55-40.59,36.1,16.2,73,12.2,84.25-9.88s-7.5-54.66-42.27-74.27c25.57-11.77,26.08-41.71.32-68.76s-68.39-41.35-97.55-33.33c-10.85-28.29-47.68-54.25-84.63-59C174-4,150.31,14,155.64,41.32c-36.11-16.19-73-12.2-84.25,9.87-11.3,22.22,7.52,54.69,42.29,74.3-25.57,11.76-26.08,41.71-.34,68.74S181.76,235.6,210.89,227.56ZM191.17,112.14c10.68-21,47.05-23.91,81.26-6.5S325.7,154.15,315,175.15s-47,23.91-81.26,6.5S180.5,133.13,191.17,112.14Z"/><path class="cls-1" d="M63.94,370.75l-.06-.09.15,0Zm262.6,41.45a0,0,0,0,1,0,0,.08.08,0,0,0,.08,0Zm15.73-51.12L339,381.67l0,0c-2.5,16.1-18.49,29.61-44.11,34.43-36,6.8-78.19-6-97.72-28.79-.53-.06-1.06-.15-1.58-.23l-.73-.11c-25.45,15.77-69.51,15-101.77-2.43C69.27,371.61,58.13,353,61.72,336.46l3-19.23c-34.58-9.24-58.53-32-55.85-54.67l-7.78,49.2c-.09.42-.19.87-.25,1.3-3.65,23.05,20.53,46.47,55.7,55.88l-3,19c-3.71,16.6,7.42,35.29,31.33,48.23,32.82,17.79,77.85,18.24,103.08,1.6,19.06,23.57,62.1,36.89,98.72,30,26.15-4.94,42.27-18.91,44.24-35.46L334,412.75c36,1.67,65.95-13.1,69.57-36l8.17-51.66C408.16,348,378.3,362.75,342.27,361.08Z"/><path class="cls-1" d="M796.77,567.12V515H807v42.72h27.25v9.38Z"/><path class="cls-1" d="M847.64,550.78v.15a11,11,0,0,0,3.86,6.33,11.39,11.39,0,0,0,7.33,2.29c4.29,0,7.38-1.24,9.34-3.76h10.14a18.68,18.68,0,0,1-7.33,9,21.61,21.61,0,0,1-12.15,3.38,22.4,22.4,0,0,1-8.52-1.57,21.35,21.35,0,0,1-6.72-4.29,20.18,20.18,0,0,1-4.38-6.57,21.71,21.71,0,0,1-1.53-8.29,21.39,21.39,0,0,1,1.53-8.29,19.17,19.17,0,0,1,4.38-6.57,19.72,19.72,0,0,1,6.72-4.29,23.93,23.93,0,0,1,17.05,0,18.83,18.83,0,0,1,10.95,10.86,21.4,21.4,0,0,1,1.57,8.29v3.33Zm11.19-15.43a11.67,11.67,0,0,0-7.05,2,10.76,10.76,0,0,0-3.9,5.67v.14h22v-.14a10.52,10.52,0,0,0-4-5.67A11.86,11.86,0,0,0,858.83,535.35Z"/><path class="cls-1" d="M917.41,552a19.36,19.36,0,0,1-1.19,7.14,12.91,12.91,0,0,1-3.28,5,14.17,14.17,0,0,1-5.1,3,21.79,21.79,0,0,1-13.05,0,13.76,13.76,0,0,1-5.1-3,13.12,13.12,0,0,1-3.33-5,20.49,20.49,0,0,1-1.14-7.14V514.64h9.48v13.14H915v8.57H894.7V552c0,2.66.61,4.57,1.81,5.66a7,7,0,0,0,4.81,1.67,6.78,6.78,0,0,0,4.76-1.62c1.24-1.09,1.86-3,1.86-5.71v-1.05h9.47Z"/><path class="cls-1" d="M972.28,561.41h-.14a13.3,13.3,0,0,1-4.72,4.62,13.81,13.81,0,0,1-6.85,1.66A18.46,18.46,0,0,1,954,566.5a15.66,15.66,0,0,1-5.62-3.52,16.89,16.89,0,0,1-4-6.19,24.49,24.49,0,0,1-1.47-9v-20h9.47v20c0,3.77.91,6.53,2.72,8.34a9.81,9.81,0,0,0,7.24,2.71,9.61,9.61,0,0,0,7.19-2.81c1.86-1.85,2.76-4.62,2.76-8.24v-20h9.48v38a22,22,0,0,1-1.52,8.76,15.53,15.53,0,0,1-4.15,6,17.12,17.12,0,0,1-6.28,3.39,26.55,26.55,0,0,1-7.63,1.09,26.05,26.05,0,0,1-6.52-.81,17.21,17.21,0,0,1-5.57-2.47,15.87,15.87,0,0,1-4.29-4.24,16.6,16.6,0,0,1-2.57-6.05h9.48c1.52,3.57,4.66,5.33,9.47,5.33,3.24,0,5.72-.81,7.48-2.47s2.62-4.43,2.62-8.24Z"/><path class="cls-1" d="M1030.72,547.45a22.7,22.7,0,0,1-1.52,8.29,20.34,20.34,0,0,1-4.38,6.57,21.14,21.14,0,0,1-6.77,4.29,23.93,23.93,0,0,1-17,0,21.3,21.3,0,0,1-6.71-4.29,20.2,20.2,0,0,1-4.39-6.57,21.89,21.89,0,0,1-1.52-8.29,21.57,21.57,0,0,1,1.52-8.29,19.19,19.19,0,0,1,4.39-6.57,19.68,19.68,0,0,1,6.71-4.29,23.93,23.93,0,0,1,17,0,19.56,19.56,0,0,1,6.77,4.29,19.31,19.31,0,0,1,4.38,6.57A22.35,22.35,0,0,1,1030.72,547.45Zm-21.19,11.86A11.14,11.14,0,0,0,1018,556a12,12,0,0,0,3.14-8.57,11.91,11.91,0,0,0-3.14-8.57,11.14,11.14,0,0,0-8.43-3.29,11.26,11.26,0,0,0-8.43,3.29,11.9,11.9,0,0,0-3.19,8.57,12,12,0,0,0,3.19,8.57A11.26,11.26,0,0,0,1009.53,559.31Z"/><path class="cls-1" d="M1065.49,527.78H1075v20.48a25.1,25.1,0,0,1-1.38,8.62,17.46,17.46,0,0,1-4,6.24,16.26,16.26,0,0,1-6.14,3.76,23.34,23.34,0,0,1-8,1.29,24.66,24.66,0,0,1-8-1.24,16.15,16.15,0,0,1-6.14-3.76,17,17,0,0,1-4-6.24,25.35,25.35,0,0,1-1.39-8.67V527.78h9.48v20.48c0,3.76.91,6.53,2.72,8.34a11,11,0,0,0,14.48,0c1.81-1.81,2.71-4.58,2.71-8.34Z"/><path class="cls-1" d="M1107,544.64v-.38q0-4.78-2.14-6.72a9.22,9.22,0,0,0-11.34,0q-2.14,1.94-2.14,6.72v22.86h-9.48V544.26a21.31,21.31,0,0,1,1.29-7.76,14.8,14.8,0,0,1,3.52-5.48,14.59,14.59,0,0,1,5.48-3.19,22.82,22.82,0,0,1,14,0,13.92,13.92,0,0,1,5.48,3.24,14.69,14.69,0,0,1,3.48,5.52,21.66,21.66,0,0,1,1.24,7.81v.24Z"/><path class="cls-1" d="M1171.37,542.5a10.94,10.94,0,0,0-4.1-5,12.06,12.06,0,0,0-6.76-1.86,11.26,11.26,0,0,0-8.43,3.29,11.9,11.9,0,0,0-3.19,8.57,12,12,0,0,0,3.19,8.57,11.26,11.26,0,0,0,8.43,3.29,12.06,12.06,0,0,0,6.76-1.86,10.94,10.94,0,0,0,4.1-5.05h9.57a19.37,19.37,0,0,1-2.52,6.39,18.64,18.64,0,0,1-4.43,5,19.86,19.86,0,0,1-6,3.19,22.1,22.1,0,0,1-7.43,1.19,22.45,22.45,0,0,1-8.53-1.57,21.3,21.3,0,0,1-6.71-4.29,20,20,0,0,1-4.38-6.57,21.71,21.71,0,0,1-1.53-8.29,21.39,21.39,0,0,1,1.53-8.29,19,19,0,0,1,4.38-6.57,19.68,19.68,0,0,1,6.71-4.29,22.64,22.64,0,0,1,8.53-1.57,23.14,23.14,0,0,1,7.43,1.15,19.94,19.94,0,0,1,6,3.23,19.25,19.25,0,0,1,4.43,5,19.94,19.94,0,0,1,2.52,6.43Z"/><path class="cls-1" d="M1227.05,547.45a22.7,22.7,0,0,1-1.53,8.29,20.18,20.18,0,0,1-4.38,6.57,21.09,21.09,0,0,1-6.76,4.29,23.93,23.93,0,0,1-17.05,0,21.23,21.23,0,0,1-6.72-4.29,20.18,20.18,0,0,1-4.38-6.57,21.71,21.71,0,0,1-1.53-8.29,21.39,21.39,0,0,1,1.53-8.29,19.17,19.17,0,0,1,4.38-6.57,19.63,19.63,0,0,1,6.72-4.29,23.93,23.93,0,0,1,17.05,0,19.51,19.51,0,0,1,6.76,4.29,19.17,19.17,0,0,1,4.38,6.57A22.35,22.35,0,0,1,1227.05,547.45Zm-21.2,11.86a11.11,11.11,0,0,0,8.43-3.29,12,12,0,0,0,3.14-8.57,11.87,11.87,0,0,0-3.14-8.57,11.11,11.11,0,0,0-8.43-3.29,11.26,11.26,0,0,0-8.43,3.29,11.9,11.9,0,0,0-3.19,8.57,12,12,0,0,0,3.19,8.57A11.26,11.26,0,0,0,1205.85,559.31Z"/><path class="cls-1" d="M1273,547.12a22.85,22.85,0,0,1-1.58,8.67,18.4,18.4,0,0,1-11,10.9,24.28,24.28,0,0,1-8.53,1.48,22.4,22.4,0,0,1-8.52-1.57,21.46,21.46,0,0,1-6.72-4.29,20.34,20.34,0,0,1-4.38-6.57,21.7,21.7,0,0,1-1.52-8.29,22.44,22.44,0,0,1,1.66-9.14,19.88,19.88,0,0,1,4.48-6.43,18.52,18.52,0,0,1,6.24-3.86,20.61,20.61,0,0,1,7-1.29,16.44,16.44,0,0,1,7.81,1.76,13.38,13.38,0,0,1,5.34,4.77h.14V510.54H1273ZM1252,559.31a11.15,11.15,0,0,0,8.44-3.29,12,12,0,0,0,3.14-8.57,11.91,11.91,0,0,0-3.14-8.57,11.15,11.15,0,0,0-8.44-3.29,11.29,11.29,0,0,0-8.43,3.29,11.94,11.94,0,0,0-3.19,8.57,12.07,12.07,0,0,0,3.19,8.57A11.29,11.29,0,0,0,1252,559.31Z"/><path class="cls-1" d="M1288.34,550.78v.15a11.07,11.07,0,0,0,3.86,6.33,11.42,11.42,0,0,0,7.34,2.29c4.28,0,7.38-1.24,9.33-3.76H1319a18.75,18.75,0,0,1-7.34,9,21.6,21.6,0,0,1-12.14,3.38,22.41,22.41,0,0,1-8.53-1.57,21.46,21.46,0,0,1-6.72-4.29,20.34,20.34,0,0,1-4.38-6.57,21.7,21.7,0,0,1-1.52-8.29,21.38,21.38,0,0,1,1.52-8.29,19.31,19.31,0,0,1,4.38-6.57,19.82,19.82,0,0,1,6.72-4.29,23.93,23.93,0,0,1,17,0,18.89,18.89,0,0,1,11,10.86,21.59,21.59,0,0,1,1.57,8.29v3.33Zm11.2-15.43a11.65,11.65,0,0,0-7,2,10.78,10.78,0,0,0-3.91,5.67v.14h22v-.14a10.59,10.59,0,0,0-4-5.67A11.82,11.82,0,0,0,1299.54,535.35Z"/><path class="cls-1" d="M1346.21,510.54h9.48v22.72h.14a13.38,13.38,0,0,1,5.34-4.77,16.39,16.39,0,0,1,7.81-1.76,20.65,20.65,0,0,1,7,1.29,18.52,18.52,0,0,1,6.24,3.86,19.71,19.71,0,0,1,4.47,6.43,23.12,23.12,0,0,1,1.67,9.14,21.89,21.89,0,0,1-1.52,8.29,20.2,20.2,0,0,1-4.39,6.57,21.3,21.3,0,0,1-6.71,4.29,22.78,22.78,0,0,1-8.53,1.57,24.34,24.34,0,0,1-8.57-1.48,18.54,18.54,0,0,1-10.91-10.9,22.85,22.85,0,0,1-1.57-8.67Zm21,48.77a11.26,11.26,0,0,0,8.43-3.29,12,12,0,0,0,3.19-8.57,11.9,11.9,0,0,0-3.19-8.57,11.26,11.26,0,0,0-8.43-3.29,11.14,11.14,0,0,0-8.43,3.29,11.91,11.91,0,0,0-3.14,8.57,12,12,0,0,0,3.14,8.57A11.14,11.14,0,0,0,1367.26,559.31Z"/><path class="cls-1" d="M1395.13,567.12V510.54h9.47v56.58Z"/><path class="cls-1" d="M1453.66,547.45a22.7,22.7,0,0,1-1.52,8.29,20.2,20.2,0,0,1-4.39,6.57,21,21,0,0,1-6.76,4.29,23.93,23.93,0,0,1-17,0,21.46,21.46,0,0,1-6.72-4.29,20.34,20.34,0,0,1-4.38-6.57,21.89,21.89,0,0,1-1.52-8.29,21.57,21.57,0,0,1,1.52-8.29,19.31,19.31,0,0,1,4.38-6.57,19.82,19.82,0,0,1,6.72-4.29,23.93,23.93,0,0,1,17,0,19.42,19.42,0,0,1,6.76,4.29,19.19,19.19,0,0,1,4.39,6.57A22.35,22.35,0,0,1,1453.66,547.45Zm-21.19,11.86a11.14,11.14,0,0,0,8.43-3.29,12,12,0,0,0,3.14-8.57,11.91,11.91,0,0,0-3.14-8.57,11.14,11.14,0,0,0-8.43-3.29,11.26,11.26,0,0,0-8.43,3.29,11.9,11.9,0,0,0-3.2,8.57A12,12,0,0,0,1424,556,11.26,11.26,0,0,0,1432.47,559.31Z"/><path class="cls-1" d="M1499.81,547.45a22.7,22.7,0,0,1-1.52,8.29,20.34,20.34,0,0,1-4.38,6.57,21.14,21.14,0,0,1-6.77,4.29,23.93,23.93,0,0,1-17.05,0,21.3,21.3,0,0,1-6.71-4.29,20.2,20.2,0,0,1-4.39-6.57,21.89,21.89,0,0,1-1.52-8.29,21.57,21.57,0,0,1,1.52-8.29,19.19,19.19,0,0,1,4.39-6.57,19.68,19.68,0,0,1,6.71-4.29,23.93,23.93,0,0,1,17.05,0,19.56,19.56,0,0,1,6.77,4.29,19.31,19.31,0,0,1,4.38,6.57A22.35,22.35,0,0,1,1499.81,547.45Zm-21.19,11.86a11.14,11.14,0,0,0,8.43-3.29,12,12,0,0,0,3.14-8.57,11.91,11.91,0,0,0-3.14-8.57,11.14,11.14,0,0,0-8.43-3.29,11.26,11.26,0,0,0-8.43,3.29,11.9,11.9,0,0,0-3.19,8.57,12,12,0,0,0,3.19,8.57A11.26,11.26,0,0,0,1478.62,559.31Z"/><path class="cls-1" d="M1530.58,567.12V544.64c0-3.19-.76-5.48-2.29-6.91a8.06,8.06,0,0,0-5.71-2.14,7.85,7.85,0,0,0-5.72,2.1c-1.47,1.43-2.24,3.71-2.24,6.95v22.48h-9.47V544.64a22.91,22.91,0,0,1,1.28-8,16.18,16.18,0,0,1,3.43-5.57,13.8,13.8,0,0,1,5.24-3.24,18.28,18.28,0,0,1,6.53-1.1,16.56,16.56,0,0,1,7.95,1.81,15.18,15.18,0,0,1,5.62,5.1h.14a14.21,14.21,0,0,1,5.53-5.1,16.76,16.76,0,0,1,8-1.81,18.26,18.26,0,0,1,6.52,1.1,13.36,13.36,0,0,1,5.24,3.24,15.55,15.55,0,0,1,3.48,5.57,22.67,22.67,0,0,1,1.29,8v22.48h-9.53V544.64c0-3.24-.71-5.52-2.19-6.95a8,8,0,0,0-5.76-2.1,7.94,7.94,0,0,0-5.67,2.14c-1.48,1.43-2.19,3.72-2.19,6.91v22.48Z"/><path class="cls-2" d="M77.57,244.23l0-.1.15.05Zm252.89,82a0,0,0,0,1,0,0,.12.12,0,0,0,.08,0Zm23.53-48L347.55,298v0c-5,15.51-22.88,26.35-48.94,27.11-36.61,1.1-76.3-18.12-92-43.7-.51-.14-1-.31-1.53-.47l-.69-.23c-27.61,11.61-71,4-100.14-18.29C82.7,245.92,74.6,225.79,80.73,210l6-18.51C54,177,33.93,150.74,40.12,128.77L24.75,176.16c-.16.4-.32.82-.46,1.23-7.2,22.2,13,49.11,46.29,63.9l-5.93,18.3c-6.25,15.82,1.82,36,23.42,52.53,29.63,22.7,74,30.18,101.56,17.69,15.14,26.25,55.57,46.13,92.82,45,26.6-.79,44.7-12.08,49.24-28.11l6.1-18.82c35.34,7.28,67.19-2.63,74.34-24.68l16.14-49.75C421.12,275.51,389.32,285.44,354,278.16Z"/><path class="cls-2" d="M71.3,499l-.07-.08h.15Zm265.85-.08s0,0,0,0a.09.09,0,0,0,.08,0Zm7.55-53v20.85l0,0c.06,16.29-13.63,32.12-38.18,40.89C272,520,228.32,514,205.47,494.51c-.54,0-1.07,0-1.6,0h-.73c-22.68,19.56-66.31,25.72-100.9,13.51-25.54-9-39.45-25.67-38.49-42.57V446C28.15,442.28.94,423.53.05,400.73v49.81c0,.43,0,.89,0,1.32,0,23.34,27.54,42.7,63.75,46.5v19.23c-1.06,17,12.85,33.7,38.49,42.74,35.19,12.44,79.74,5.86,102.06-14.52,22.5,20.3,67.1,26.74,102.19,14.19,25.06-9,38.79-25.28,38.16-41.93V498.28c35.85-4,63.09-23.23,63.09-46.42v-52.3C407.74,422.72,380.55,442,344.7,446Z"/><path class="cls-2" d="M787.53,348.79q0,33-10.76,59.92a134.6,134.6,0,0,1-29.67,46,128,128,0,0,1-45.92,29.1Q674.26,494,642.31,494q-32.43,0-59.1-10.71A140.59,140.59,0,0,1,537,453.53a131.47,131.47,0,0,1-30.25-45.34A150.89,150.89,0,0,1,496.05,351q0-36.28,11.81-63t30.82-44.53a123.66,123.66,0,0,1,43.15-26.67A140.89,140.89,0,0,1,630.22,208q30.78,0,54.2,12.1t36.53,33h1.14V96.36h65.44ZM642.31,432.91q36.3,0,58-22.82T722.09,351q0-36.28-21.76-59.1t-58-22.82q-36.28,0-58.29,22.82T562,351q0,36.3,22,59.11T642.31,432.91Z"/><path class="cls-2" d="M1099.88,486.82h-60V436.24h-1.09q-11,26.36-36.29,42.05t-60,15.67a141,141,0,0,1-48.39-8.81A123.16,123.16,0,0,1,851,458.48Q832,440.62,820.21,414t-11.82-63a150.88,150.88,0,0,1,10.72-57.2,131.31,131.31,0,0,1,30.24-45.34,140.8,140.8,0,0,1,46.2-29.72Q922.21,208,954.66,208q31.94,0,58.87,10.44c18,7,33.24,16.76,45.91,29.43a135.25,135.25,0,0,1,29.67,45.63q10.8,26.72,10.77,59.68ZM954.66,432.91q36.29,0,58-22.82T1034.44,351q0-36.28-21.77-59.1t-58-22.82q-36.3,0-58.3,22.82t-22,59.1q0,36.3,22,59.11T954.66,432.91Z"/><path class="cls-2" d="M1173.56,182.71a43.24,43.24,0,0,1-43.44-43.48c0-12.43,4.24-22.91,12.67-31.34a41.83,41.83,0,0,1,30.77-12.62q18.72,0,31.1,12.62c8.24,8.43,12.38,18.91,12.38,31.34a42.43,42.43,0,0,1-12.38,30.82Q1192.3,182.7,1173.56,182.71Zm-32.44,304.11V215.15h65.45V486.82Z"/><path class="cls-2" d="M1394.65,293.26c-.76-8.43-4.76-15.24-12.1-20.39s-17.43-7.66-30.24-7.66q-22,0-32.72,8.76a28.05,28.05,0,0,0-10.77,22.58c0,8,3.86,13.76,11.58,17.05s17.38,5.85,29.15,7.66,24.29,3.67,37.67,5.53a130.12,130.12,0,0,1,37.67,11A76.59,76.59,0,0,1,1454,361.42q11.51,15.42,11.53,43.48A80.29,80.29,0,0,1,1434.8,469q-14.86,11.79-36.06,18.43t-47,6.57q-25.87,0-46.73-6.57t-35.77-18.14a83.07,83.07,0,0,1-23.1-27.53,81.06,81.06,0,0,1-8.81-35.2h66c.38,9.19,4.47,16.53,12.38,22s19.53,8.24,34.91,8.24c17.62,0,30.15-2.9,37.67-8.76a27.94,27.94,0,0,0,11.29-23.1c0-8.1-3.86-13.67-11.57-16.81s-17.43-5.48-29.15-7.15-24.29-3.38-37.67-5.19A136.05,136.05,0,0,1,1283.53,365a72.48,72.48,0,0,1-29.15-23.91q-11.49-15.93-11.52-44.53A81.34,81.34,0,0,1,1272.29,233c9.34-7.86,20.67-14,34.1-18.43s28.3-6.58,44.82-6.58,31.34,2.2,44.53,6.58,24.49,10.48,33.82,18.14a83.24,83.24,0,0,1,21.72,27,79,79,0,0,1,8.24,33.58Z"/><path class="cls-2" d="M1528.82,182.71a43.24,43.24,0,0,1-43.44-43.48c0-12.43,4.24-22.91,12.67-31.34a41.83,41.83,0,0,1,30.77-12.62q18.72,0,31.1,12.62c8.24,8.43,12.38,18.91,12.38,31.34a42.43,42.43,0,0,1-12.38,30.82Q1547.56,182.7,1528.82,182.71Zm-32.44,304.11V215.15h65.44V486.82Z"/><path class="cls-2" d="M1600.32,44.92h-14.49V33.35h43V44.92h-14.56V83.06h-14Z"/><path class="cls-2" d="M1675.08,53.44,1662.37,68.5h-2.49l-12.42-15V83.06h-13.92V33.35h14.7l13.07,16.83,13.07-16.83H1689V83.06h-13.92Z"/></g></g></svg>