<svg xmlns="http://www.w3.org/2000/svg" viewBox="0 0 1833.34 694"><defs><style>.cls-1{fill:#fff;}.cls-2{fill:#82c341;}.cls-3{fill:#20aa97;}</style></defs><g id="Layer_2" data-name="Layer 2"><g id="Layer_1-2" data-name="Layer 1"><rect class="cls-1" width="1833.34" height="694"/><path class="cls-2" d="M283.06,282.07c10.85,28.29,47.68,54.25,84.65,59,36.72,4.71,60.38-13.23,55-40.58,36.11,16.2,73,12.2,84.26-9.88s-7.5-54.66-42.27-74.27c25.57-11.77,26.08-41.71.32-68.76s-68.4-41.35-97.55-33.33c-10.85-28.29-47.68-54.25-84.63-59-36.72-4.71-60.37,13.22-55,40.57-36.11-16.19-73-12.2-84.25,9.87s7.52,54.69,42.29,74.29c-25.57,11.77-26.08,41.72-.35,68.75S253.92,290.11,283.06,282.07ZM263.34,166.65c10.68-21,47-23.91,81.26-6.5s53.27,48.5,42.59,69.5-47.05,23.92-81.26,6.51S252.66,187.64,263.34,166.65Z"/><path class="cls-2" d="M136.11,425.26l-.07-.09.15,0ZM398.7,466.71s0,0,0,0a.08.08,0,0,0,.08,0Zm15.73-51.13-3.25,20.6,0,0c-2.5,16.1-18.49,29.61-44.11,34.43-36,6.8-78.19-6-97.72-28.8-.53,0-1.06-.14-1.58-.22l-.73-.11c-25.45,15.77-69.51,15-101.77-2.43-23.82-12.9-34.95-31.51-31.36-48.06l3-19.22c-34.58-9.24-58.53-32-55.85-54.67l-7.78,49.2c-.09.42-.19.87-.26,1.3C69.4,390.62,93.58,414,128.75,423.45l-3,19c-3.7,16.6,7.43,35.29,31.34,48.23,32.82,17.79,77.85,18.24,103.08,1.6,19,23.56,62.1,36.89,98.72,30,26.15-4.94,42.26-18.91,44.24-35.46l3.09-19.54c36,1.67,66-13.1,69.57-36L484,379.61C480.33,402.48,450.47,417.26,414.43,415.58Z"/><path class="cls-2" d="M868.94,621.63v-52.1h10.19v42.72h27.25v9.38Z"/><path class="cls-2" d="M919.81,605.29v.15a11.06,11.06,0,0,0,3.85,6.33,11.43,11.43,0,0,0,7.34,2.29c4.29,0,7.38-1.24,9.33-3.77h10.15a18.62,18.62,0,0,1-7.34,9A21.58,21.58,0,0,1,931,622.68a22.64,22.64,0,0,1-8.53-1.57,21.3,21.3,0,0,1-6.71-4.29,20,20,0,0,1-4.38-6.57,21.71,21.71,0,0,1-1.53-8.29,21.39,21.39,0,0,1,1.53-8.29,19,19,0,0,1,4.38-6.57,19.68,19.68,0,0,1,6.71-4.29,24,24,0,0,1,17.06,0,18.91,18.91,0,0,1,11,10.86,21.4,21.4,0,0,1,1.57,8.29v3.33ZM931,589.86a11.67,11.67,0,0,0-7,2,10.71,10.71,0,0,0-3.9,5.67v.14h22v-.14a10.57,10.57,0,0,0-4-5.67A11.86,11.86,0,0,0,931,589.86Z"/><path class="cls-2" d="M989.58,606.48a19.38,19.38,0,0,1-1.19,7.15,13,13,0,0,1-3.28,5,14.17,14.17,0,0,1-5.1,3,21.79,21.79,0,0,1-13,0,13.76,13.76,0,0,1-5.1-3,13,13,0,0,1-3.33-5,20.51,20.51,0,0,1-1.14-7.15V569.14h9.47v13.15H987.2v8.57H966.86v15.62c0,2.67.62,4.58,1.81,5.67a7,7,0,0,0,4.81,1.67,6.78,6.78,0,0,0,4.77-1.62c1.24-1.1,1.85-3,1.85-5.72v-1h9.48Z"/><path class="cls-2" d="M1044.45,615.92h-.14a13.27,13.27,0,0,1-4.72,4.61,13.75,13.75,0,0,1-6.86,1.67,18.54,18.54,0,0,1-6.62-1.19,15.84,15.84,0,0,1-5.62-3.52,17,17,0,0,1-4-6.19,24.48,24.48,0,0,1-1.48-9v-20h9.48v20c0,3.77.91,6.53,2.72,8.34a9.81,9.81,0,0,0,7.24,2.71,9.61,9.61,0,0,0,7.19-2.81c1.86-1.85,2.76-4.62,2.76-8.24v-20h9.48v38a21.81,21.81,0,0,1-1.53,8.76,15.51,15.51,0,0,1-4.14,6,17.08,17.08,0,0,1-6.29,3.39,26.43,26.43,0,0,1-7.62,1.09,26.05,26.05,0,0,1-6.52-.81,17,17,0,0,1-5.57-2.48A15.69,15.69,0,0,1,1018,632a16.6,16.6,0,0,1-2.57-6.05h9.47c1.53,3.57,4.67,5.33,9.48,5.33,3.24,0,5.72-.81,7.48-2.48s2.62-4.42,2.62-8.24Z"/><path class="cls-2" d="M1102.89,602a22.7,22.7,0,0,1-1.52,8.29,20.2,20.2,0,0,1-4.39,6.57,21,21,0,0,1-6.76,4.29,23.93,23.93,0,0,1-17,0,21.46,21.46,0,0,1-6.72-4.29,20.34,20.34,0,0,1-4.38-6.57,21.7,21.7,0,0,1-1.52-8.29,21.38,21.38,0,0,1,1.52-8.29,19.31,19.31,0,0,1,4.38-6.57,19.82,19.82,0,0,1,6.72-4.29,23.93,23.93,0,0,1,17,0,19.42,19.42,0,0,1,6.76,4.29,19.19,19.19,0,0,1,4.39,6.57A22.35,22.35,0,0,1,1102.89,602Zm-21.19,11.86a11.14,11.14,0,0,0,8.43-3.29,12.06,12.06,0,0,0,3.14-8.57,11.91,11.91,0,0,0-3.14-8.57,11.14,11.14,0,0,0-8.43-3.29,11.26,11.26,0,0,0-8.43,3.29,11.9,11.9,0,0,0-3.2,8.57,12.05,12.05,0,0,0,3.2,8.57A11.26,11.26,0,0,0,1081.7,613.82Z"/><path class="cls-2" d="M1137.66,582.29h9.48v20.48a25.1,25.1,0,0,1-1.38,8.62,17.46,17.46,0,0,1-4,6.24,16.39,16.39,0,0,1-6.14,3.76,23.36,23.36,0,0,1-8,1.29,24.64,24.64,0,0,1-8-1.24,16.28,16.28,0,0,1-6.14-3.76,17.2,17.2,0,0,1-4-6.24,25.6,25.6,0,0,1-1.38-8.67V582.29h9.48v20.48c0,3.76.9,6.52,2.71,8.33a11,11,0,0,0,14.48,0c1.81-1.81,2.72-4.57,2.72-8.33Z"/><path class="cls-2" d="M1179.19,599.15v-.38q0-4.78-2.14-6.72a9.22,9.22,0,0,0-11.34,0q-2.14,1.94-2.14,6.72v22.86h-9.48V598.77a21.31,21.31,0,0,1,1.29-7.76,14.6,14.6,0,0,1,3.52-5.48,14.44,14.44,0,0,1,5.48-3.19,20.41,20.41,0,0,1,7-1.1,20.64,20.64,0,0,1,7,1.1,14.06,14.06,0,0,1,5.48,3.24,14.79,14.79,0,0,1,3.47,5.52,21.45,21.45,0,0,1,1.24,7.81v.24Z"/><path class="cls-2" d="M1243.54,597a10.94,10.94,0,0,0-4.1-5,12.08,12.08,0,0,0-6.76-1.86,11.26,11.26,0,0,0-8.43,3.29,11.9,11.9,0,0,0-3.19,8.57,12,12,0,0,0,3.19,8.57,11.26,11.26,0,0,0,8.43,3.29,12.08,12.08,0,0,0,6.76-1.86,10.94,10.94,0,0,0,4.1-5.05h9.57a19.17,19.17,0,0,1-2.53,6.39,18.6,18.6,0,0,1-4.42,5,20,20,0,0,1-6.05,3.19,22.14,22.14,0,0,1-7.43,1.19,22.61,22.61,0,0,1-8.53-1.57,21.3,21.3,0,0,1-6.71-4.29,20.2,20.2,0,0,1-4.39-6.57,21.89,21.89,0,0,1-1.52-8.29,21.57,21.57,0,0,1,1.52-8.29,19.19,19.19,0,0,1,4.39-6.57,19.68,19.68,0,0,1,6.71-4.29,22.61,22.61,0,0,1,8.53-1.57,23.47,23.47,0,0,1,7.43,1.14,20.31,20.31,0,0,1,6.05,3.24,19.05,19.05,0,0,1,4.42,5,19.73,19.73,0,0,1,2.53,6.43Z"/><path class="cls-2" d="M1299.21,602a22.7,22.7,0,0,1-1.52,8.29,20.34,20.34,0,0,1-4.38,6.57,21.14,21.14,0,0,1-6.77,4.29,23.93,23.93,0,0,1-17,0,21.3,21.3,0,0,1-6.71-4.29,20,20,0,0,1-4.38-6.57,21.71,21.71,0,0,1-1.53-8.29,21.39,21.39,0,0,1,1.53-8.29,19,19,0,0,1,4.38-6.57,19.68,19.68,0,0,1,6.71-4.29,23.93,23.93,0,0,1,17,0,19.56,19.56,0,0,1,6.77,4.29,19.31,19.31,0,0,1,4.38,6.57A22.35,22.35,0,0,1,1299.21,602ZM1278,613.82a11.14,11.14,0,0,0,8.43-3.29,12.06,12.06,0,0,0,3.14-8.57,11.91,11.91,0,0,0-3.14-8.57,11.14,11.14,0,0,0-8.43-3.29,11.26,11.26,0,0,0-8.43,3.29,11.9,11.9,0,0,0-3.19,8.57,12,12,0,0,0,3.19,8.57A11.26,11.26,0,0,0,1278,613.82Z"/><path class="cls-2" d="M1345.17,601.63a22.76,22.76,0,0,1-1.57,8.66,18.37,18.37,0,0,1-4.28,6.67,18.16,18.16,0,0,1-6.67,4.24,24.51,24.51,0,0,1-8.53,1.48,22.59,22.59,0,0,1-8.52-1.57,21.46,21.46,0,0,1-6.72-4.29,20.18,20.18,0,0,1-4.38-6.57A21.7,21.7,0,0,1,1303,602a22.44,22.44,0,0,1,1.66-9.14,19.88,19.88,0,0,1,4.48-6.43,18.36,18.36,0,0,1,6.24-3.86,20.56,20.56,0,0,1,7.05-1.29,16.44,16.44,0,0,1,7.81,1.76,13.29,13.29,0,0,1,5.33,4.77h.15V565.05h9.47Zm-21.05,12.19a11.11,11.11,0,0,0,8.43-3.29,12,12,0,0,0,3.15-8.57,11.87,11.87,0,0,0-3.15-8.57,11.11,11.11,0,0,0-8.43-3.29,11.29,11.29,0,0,0-8.43,3.29,11.94,11.94,0,0,0-3.19,8.57,12.09,12.09,0,0,0,3.19,8.57A11.29,11.29,0,0,0,1324.12,613.82Z"/><path class="cls-2" d="M1360.51,605.29v.15a11.07,11.07,0,0,0,3.86,6.33,11.39,11.39,0,0,0,7.33,2.29c4.29,0,7.39-1.24,9.34-3.77h10.14a18.66,18.66,0,0,1-7.33,9,21.61,21.61,0,0,1-12.15,3.38,22.59,22.59,0,0,1-8.52-1.57,21.46,21.46,0,0,1-6.72-4.29,20.18,20.18,0,0,1-4.38-6.57,21.7,21.7,0,0,1-1.52-8.29,21.38,21.38,0,0,1,1.52-8.29,19.17,19.17,0,0,1,4.38-6.57,19.82,19.82,0,0,1,6.72-4.29,23.93,23.93,0,0,1,17,0,18.83,18.83,0,0,1,11,10.86,21.4,21.4,0,0,1,1.57,8.29v3.33Zm11.19-15.43a11.67,11.67,0,0,0-7,2,10.76,10.76,0,0,0-3.9,5.67v.14h22v-.14a10.59,10.59,0,0,0-4-5.67A11.83,11.83,0,0,0,1371.7,589.86Z"/><path class="cls-2" d="M1418.38,565.05h9.48v22.72h.14a13.42,13.42,0,0,1,5.33-4.77,16.46,16.46,0,0,1,7.82-1.76,20.55,20.55,0,0,1,7,1.29,18.17,18.17,0,0,1,6.24,3.86,19.73,19.73,0,0,1,4.48,6.43,23.12,23.12,0,0,1,1.67,9.14,21.71,21.71,0,0,1-1.53,8.29,20,20,0,0,1-4.38,6.57,21.3,21.3,0,0,1-6.71,4.29,23,23,0,0,1-8.53,1.57,24.57,24.57,0,0,1-8.57-1.48A18.52,18.52,0,0,1,1420,610.29a22.76,22.76,0,0,1-1.57-8.66Zm21,48.77a11.26,11.26,0,0,0,8.43-3.29,12,12,0,0,0,3.19-8.57,11.9,11.9,0,0,0-3.19-8.57,11.26,11.26,0,0,0-8.43-3.29,11.14,11.14,0,0,0-8.43,3.29,11.87,11.87,0,0,0-3.14,8.57,12,12,0,0,0,3.14,8.57A11.14,11.14,0,0,0,1439.43,613.82Z"/><path class="cls-2" d="M1467.29,621.63V565.05h9.48v56.58Z"/><path class="cls-2" d="M1525.83,602a22.7,22.7,0,0,1-1.53,8.29,20,20,0,0,1-4.38,6.57,21,21,0,0,1-6.76,4.29,23.93,23.93,0,0,1-17.05,0,21.46,21.46,0,0,1-6.72-4.29,20.34,20.34,0,0,1-4.38-6.57,21.7,21.7,0,0,1-1.52-8.29,21.38,21.38,0,0,1,1.52-8.29,19.31,19.31,0,0,1,4.38-6.57,19.82,19.82,0,0,1,6.72-4.29,23.93,23.93,0,0,1,17.05,0,19.42,19.42,0,0,1,6.76,4.29,19,19,0,0,1,4.38,6.57A22.35,22.35,0,0,1,1525.83,602Zm-21.2,11.86a11.11,11.11,0,0,0,8.43-3.29,12,12,0,0,0,3.15-8.57,11.87,11.87,0,0,0-3.15-8.57,11.11,11.11,0,0,0-8.43-3.29,11.29,11.29,0,0,0-8.43,3.29A11.94,11.94,0,0,0,1493,602a12.09,12.09,0,0,0,3.19,8.57A11.29,11.29,0,0,0,1504.63,613.82Z"/><path class="cls-2" d="M1572,602a22.7,22.7,0,0,1-1.52,8.29,20.2,20.2,0,0,1-4.39,6.57,21,21,0,0,1-6.76,4.29,23.93,23.93,0,0,1-17,0,21.46,21.46,0,0,1-6.72-4.29,20.34,20.34,0,0,1-4.38-6.57,21.7,21.7,0,0,1-1.52-8.29,21.38,21.38,0,0,1,1.52-8.29,19.31,19.31,0,0,1,4.38-6.57,19.82,19.82,0,0,1,6.72-4.29,23.93,23.93,0,0,1,17,0,19.42,19.42,0,0,1,6.76,4.29,19.19,19.19,0,0,1,4.39,6.57A22.35,22.35,0,0,1,1572,602Zm-21.19,11.86a11.14,11.14,0,0,0,8.43-3.29,12.06,12.06,0,0,0,3.14-8.57,11.91,11.91,0,0,0-3.14-8.57,11.14,11.14,0,0,0-8.43-3.29,11.26,11.26,0,0,0-8.43,3.29,11.9,11.9,0,0,0-3.2,8.57,12.05,12.05,0,0,0,3.2,8.57A11.26,11.26,0,0,0,1550.79,613.82Z"/><path class="cls-2" d="M1602.75,621.63V599.15c0-3.19-.76-5.48-2.29-6.91a8,8,0,0,0-5.71-2.14,7.85,7.85,0,0,0-5.72,2.1c-1.48,1.43-2.24,3.71-2.24,6.95v22.48h-9.48V599.15a22.64,22.64,0,0,1,1.29-8,16.18,16.18,0,0,1,3.43-5.57,13.8,13.8,0,0,1,5.24-3.24,18.26,18.26,0,0,1,6.52-1.1,16.62,16.62,0,0,1,8,1.81,15.26,15.26,0,0,1,5.62,5.1h.14a14.21,14.21,0,0,1,5.53-5.1,16.76,16.76,0,0,1,8-1.81,18.26,18.26,0,0,1,6.52,1.1,13.43,13.43,0,0,1,5.24,3.24,15.55,15.55,0,0,1,3.48,5.57,22.64,22.64,0,0,1,1.28,8v22.48H1628V599.15c0-3.24-.72-5.52-2.19-6.95a8,8,0,0,0-5.77-2.1,7.89,7.89,0,0,0-5.66,2.14c-1.48,1.43-2.19,3.72-2.19,6.91v22.48Z"/><path class="cls-3" d="M149.74,298.74l-.05-.1.14.05Zm252.89,82s0,0,0,0a.07.07,0,0,0,.08,0Zm23.53-48-6.44,19.84v0c-5,15.51-22.89,26.35-48.95,27.11-36.61,1.1-76.3-18.12-92-43.71-.52-.14-1-.3-1.53-.46l-.7-.23c-27.6,11.61-71,4-100.14-18.29-21.51-16.46-29.6-36.59-23.47-52.37l6-18.51c-32.72-14.53-52.82-40.76-46.62-62.73L96.92,230.67c-.16.4-.33.82-.46,1.23-7.2,22.2,13,49.11,46.29,63.9l-5.93,18.3c-6.26,15.82,1.82,36,23.41,52.53,29.64,22.7,74,30.18,101.57,17.69,15.13,26.25,55.57,46.13,92.82,45,26.6-.8,44.7-12.08,49.24-28.11l6.1-18.82c35.33,7.28,67.19-2.63,74.34-24.68L500.44,308C493.29,330,461.49,340,426.16,332.66Z"/><path class="cls-3" d="M143.47,553.5l-.08-.08h.16Zm265.85-.08s0,0,0,0a.09.09,0,0,0,.08,0Zm7.55-52.95v20.85l0,0c.05,16.3-13.63,32.13-38.18,40.9-34.49,12.34-78.17,6.31-101-13.18-.53,0-1.06,0-1.59,0h-.74c-22.67,19.56-66.31,25.72-100.89,13.5-25.54-9-39.45-25.66-38.49-42.56V500.52c-35.6-3.73-62.81-22.48-63.7-45.28v49.81c0,.43,0,.89,0,1.32,0,23.34,27.54,42.69,63.75,46.5V572.1c-1.07,17,12.85,33.7,38.49,42.74,35.19,12.44,79.74,5.86,102.06-14.52,22.5,20.3,67.09,26.74,102.19,14.19,25.06-9,38.79-25.28,38.16-41.93V552.79c35.85-4,63.09-23.24,63.09-46.42v-52.3C479.91,477.23,452.72,496.49,416.87,500.47Z"/><path class="cls-3" d="M859.7,403.3q0,33-10.76,59.92a134.47,134.47,0,0,1-29.68,46,128,128,0,0,1-45.91,29.1q-26.94,10.22-58.87,10.19-32.43,0-59.1-10.71A140.59,140.59,0,0,1,609.18,508a131.33,131.33,0,0,1-30.25-45.34,150.89,150.89,0,0,1-10.71-57.21q0-36.28,11.81-63T610.84,298A123.75,123.75,0,0,1,654,271.33a141,141,0,0,1,48.39-8.82q30.79,0,54.21,12.1t36.53,33h1.14V150.87H859.7ZM714.48,487.41q36.3,0,58-22.81t21.77-59.11q0-36.28-21.77-59.1t-58-22.82q-36.29,0-58.3,22.82t-22,59.1q0,36.3,22,59.11T714.48,487.41Z"/><path class="cls-3" d="M1172.05,541.33h-60V490.75H1111q-11,26.36-36.3,42t-60,15.67a140.92,140.92,0,0,1-48.39-8.81A123.07,123.07,0,0,1,923.19,513q-19-17.87-30.82-44.53t-11.81-63a150.65,150.65,0,0,1,10.72-57.2A131.31,131.31,0,0,1,921.52,303a140.53,140.53,0,0,1,46.2-29.72q26.65-10.71,59.11-10.72,31.93,0,58.87,10.43c18,7,33.24,16.77,45.91,29.44A135.25,135.25,0,0,1,1161.28,348q10.79,26.72,10.77,59.67Zm-145.22-53.92q36.29,0,58-22.81t21.76-59.11q0-36.28-21.76-59.1t-58-22.82q-36.3,0-58.3,22.82t-22,59.1q0,36.3,22,59.11T1026.83,487.41Z"/><path class="cls-3" d="M1245.73,237.22a43.26,43.26,0,0,1-43.44-43.48c0-12.43,4.24-22.91,12.67-31.34a41.83,41.83,0,0,1,30.77-12.62q18.72,0,31.1,12.62c8.24,8.43,12.38,18.91,12.38,31.34a42.39,42.39,0,0,1-12.38,30.81Q1264.47,237.2,1245.73,237.22Zm-32.44,304.11V269.66h65.44V541.33Z"/><path class="cls-3" d="M1466.82,347.77c-.77-8.43-4.77-15.24-12.1-20.39s-17.43-7.66-30.24-7.66q-22,0-32.73,8.76A28.05,28.05,0,0,0,1381,351.05c0,8.05,3.86,13.77,11.57,17.06s17.39,5.85,29.15,7.66,24.29,3.67,37.68,5.53a130.12,130.12,0,0,1,37.67,11,76.64,76.64,0,0,1,29.15,23.62q11.51,15.43,11.53,43.49A80.29,80.29,0,0,1,1507,523.47q-14.87,11.79-36.06,18.43t-47,6.57q-25.86,0-46.72-6.57t-35.77-18.15a83,83,0,0,1-23.1-27.52,81,81,0,0,1-8.81-35.2h66c.38,9.19,4.48,16.53,12.39,22s19.52,8.24,34.91,8.24c17.62,0,30.15-2.9,37.67-8.76a28,28,0,0,0,11.29-23.1c0-8.1-3.86-13.67-11.57-16.81s-17.44-5.48-29.15-7.15-24.29-3.38-37.68-5.19a136,136,0,0,1-37.67-10.76,72.41,72.41,0,0,1-29.15-23.91Q1315,379.66,1315,351.05a81.34,81.34,0,0,1,29.43-63.53c9.34-7.86,20.67-14,34.1-18.43s28.29-6.58,44.82-6.58,31.34,2.19,44.53,6.58,24.48,10.47,33.82,18.14a83.51,83.51,0,0,1,21.72,27,79.19,79.19,0,0,1,8.24,33.58Z"/><path class="cls-3" d="M1601,237.22a43.26,43.26,0,0,1-43.44-43.48c0-12.43,4.24-22.91,12.67-31.34A41.83,41.83,0,0,1,1601,149.78q18.71,0,31.1,12.62c8.24,8.43,12.38,18.91,12.38,31.34a42.39,42.39,0,0,1-12.38,30.81Q1619.73,237.2,1601,237.22Zm-32.44,304.11V269.66H1634V541.33Z"/><path class="cls-3" d="M1672.49,99.43H1658V87.86h43V99.43h-14.56v38.14h-14Z"/><path class="cls-3" d="M1747.25,108,1734.54,123h-2.49l-12.42-15v29.54h-13.92V87.86h14.7l13.07,16.83,13.06-16.83h14.63v49.71h-13.92Z"/></g></g></svg>